<?xml version="1.0" encoding="UTF-8"?><!DOCTYPE svg PUBLIC "-//W3C//DTD SVG 1.1//EN" "http://www.w3.org/Graphics/SVG/1.1/DTD/svg11.dtd"><svg xmlns="http://www.w3.org/2000/svg" xmlns:xlink="http://www.w3.org/1999/xlink" version="1.1" x="0px" y="0px" width="512px" height="512px" viewBox="0 0 512 512" xml:space="preserve"><path d="M434.478 16H77.519C43.718 16 16 43.719 16 77.521v356.957C16 468.282 43.718 496 77.519 496h356.959C468.281 496 496 468.282 496 434.479V77.521C496 43.719 468.281 16 434.478 16zM327.203 230.875L324.906 256H277v160h-64V256h-32v-64h32v-29.038c0-26.212 12.524-67.166 67.461-67.166l49.539.225V151h-36.003c-5.848 0-13.997 2.812-13.997 15.284V192h50.743l-3.54 38.875z" fill-rule="evenodd" clip-rule="evenodd" fill="#1A1A1A" id="facebook__x2C__social__x2C__media_x2C__icon_x2C_"/><metadata><rdf:RDF xmlns:rdf="http://www.w3.org/1999/02/22-rdf-syntax-ns#" xmlns:rdfs="http://www.w3.org/2000/01/rdf-schema#" xmlns:dc="http://purl.org/dc/elements/1.1/"><rdf:Description about="https://iconscout.com/legal#licenses" dc:title="facebook,social,media" dc:description="facebook,social,media" dc:publisher="Iconscout" dc:date="2018-06-25" dc:format="image/svg+xml" dc:language="en"><dc:creator><rdf:Bag><rdf:li>Ibrandify Icons</rdf:li></rdf:Bag></dc:creator></rdf:Description></rdf:RDF></metadata></svg>