<svg id="Capa_1" enable-background="new 0 0 512 512" height="512" viewBox="0 0 512 512" width="512" xmlns="http://www.w3.org/2000/svg"><circle cx="149.568" cy="245.502" r="35.358"/><path d="m149.568 310.861c-33.86 0-61.408 27.547-61.408 61.408v49.684h122.815v-49.684c.001-33.861-27.546-61.408-61.407-61.408z"/><path d="m0 120.072v391.928h512v-391.928zm271.012 90.904h180.952v30h-180.952zm0 60.048h180.952v30h-180.952zm0 60.048h180.952v30h-180.952zm0 60.048h180.952v30h-180.952zm-212.852-18.851c0-34.025 18.689-63.764 46.339-79.5-12.486-11.911-20.289-28.689-20.289-47.266 0-36.039 29.319-65.358 65.358-65.358s65.358 29.32 65.358 65.358c0 18.577-7.803 35.355-20.289 47.266 27.649 15.736 46.338 45.475 46.338 79.5v79.684h-182.815z"/><path d="m512 90.072v-90.072h-512v90.072zm-421.94-30.048h-30.024v-30h30.024zm60.048 0h-30.024v-30h30.024zm60.048 0h-30.024v-30h30.024z"/></svg>